<?xml version="1.0" encoding="utf-8"?>
<!-- Generator: Adobe Illustrator 19.2.1, SVG Export Plug-In . SVG Version: 6.00 Build 0)  -->
<svg version="1.1" id="Layer_1" xmlns="http://www.w3.org/2000/svg" xmlns:xlink="http://www.w3.org/1999/xlink" x="0px" y="0px"
	 viewBox="0 0 65.4 72.9" style="enable-background:new 0 0 65.4 72.9;" xml:space="preserve">
<style type="text/css">
	.st0{fill:#25D494;}
	.st1{fill:#818181;}
	.st2{fill:#E6E6E5;}
</style>
<circle class="st0" cx="32.7" cy="40.2" r="32.7"/>
<path class="st1" d="M54.2,1.5c-0.7-0.7-2-1.6-4-1.5h-7.5v0c-1.3,0.1-2.4,1.2-2.4,2.5c0,1.4,1.1,2.6,2.6,2.6c1.1,0,2.1-0.7,2.4-1.7
	h5c1-0.1,1.4,0.3,1.5,0.5c0.6,0.6,0.7,1.7,0.7,2.2c-1.6,5.6-5.8,19.8-7,22.2c-1.1,2.1-2.5,2-3.1,2h-4c-0.6-1.2-1.9-2-3.3-2
	c-1.4,0-2.7,0.8-3.3,2h-4.2c-0.5,0-1.9,0-3-2c-1.1-2.2-4.8-14.4-7-22.2c0-0.5,0.1-1.6,0.7-2.2c0.1-0.1,0.5-0.5,1.6-0.5h5.1
	c0.3,1,1.3,1.7,2.4,1.7c1.4,0,2.6-1.1,2.6-2.6c0-1.4-1.1-2.5-2.5-2.6v0h-7.5c-2.1-0.1-3.4,0.8-4.1,1.5c-1.8,1.8-1.6,4.6-1.6,4.9
	l0.1,0.3c0.6,2,5.7,19.9,7.4,23.1c0.9,1.8,2.7,3.9,6,3.9c0,0,0.1,0,0.1,0h4c0.4,0.8,1,1.4,1.8,1.8l0.1,9.6h-7.1
	c-0.8-2.1-2.8-3.5-5.1-3.5c-3,0-5.5,2.5-5.5,5.5c0,3,2.5,5.5,5.5,5.5c2.5,0,4.6-1.7,5.2-4h6.9l0,0.4c0,0.2,0,2.4,1.4,3.9
	c0.8,0.8,1.9,1.2,3.1,1.2c1.6,0,2.6-0.7,3.2-1.3c1.3-1.4,1.2-3.4,1.2-3.4c0-0.2,0.1-1.7-1.1-3c-0.6-0.6-1.6-1.3-3.5-1.3v0h0
	c0,0,0,0,0,0v0h-0.9l-0.1-9.7c0.7-0.4,1.3-1,1.7-1.8h3.9c0,0,0.1,0,0.1,0c3.2,0,5-2.1,6-3.9c1.7-3.2,6.8-21,7.4-23.1l0.1-0.3
	C55.9,6.1,56,3.3,54.2,1.5z M37.8,48.5c0.5,0,0.9,0.1,1,0.3c0.2,0.2,0.2,0.5,0.2,0.7c0,0.1,0,0.8-0.3,1c-0.1,0.1-0.3,0.2-0.7,0.2
	c-0.5,0-0.6-0.1-0.7-0.2c-0.4-0.4-0.5-1.1-0.5-1.5l0-0.5H37.8z"/>
<circle class="st2" cx="21.3" cy="47.1" r="2.5"/>
</svg>
