<?xml version="1.0" encoding="utf-8"?>
<!-- Generator: Adobe Illustrator 19.2.1, SVG Export Plug-In . SVG Version: 6.00 Build 0)  -->
<svg version="1.1" id="Layer_1" xmlns="http://www.w3.org/2000/svg" xmlns:xlink="http://www.w3.org/1999/xlink" x="0px" y="0px"
	 viewBox="0 0 73.4 73.8" style="enable-background:new 0 0 73.4 73.8;" xml:space="preserve">
<style type="text/css">
	.st0{fill:#FDC694;}
	.st1{fill:#F2F2F2;}
	.st2{fill:#F15C27;}
	.st3{fill:#FFFFFF;}
	.st4{font-family:'AktivGrotesk-Bold';}
	.st5{font-size:11.5588px;}
	.st6{fill:#7B3619;}
	.st7{fill:#F3F5CC;}
</style>
<g>
	<circle class="st0" cx="36.7" cy="36.7" r="36.7"/>
	<g>
		<g>
			<path class="st1" d="M20.2,20.5H54c0.6,0,1.1,0.5,1.1,1.1V51c0,1.9-1.5,3.5-3.5,3.5H22.5c-1.9,0-3.5-1.5-3.5-3.5V21.6
				C19,21,19.5,20.5,20.2,20.5z"/>
		</g>
		<g>
			<path class="st2" d="M19.6,20.2h35c0.3,0,0.5,0.2,0.5,0.5v7.2H19v-7.2C19,20.4,19.3,20.2,19.6,20.2z"/>
		</g>
		<path class="st2" d="M47.2,32.1c-2.6-2.6-6.8-2.6-9.4,0c-2.6-2.6-6.8-2.7-9.4-0.1c-2.6,2.6-2.7,6.7,0.1,9.6
			c1.1,1.1,4.9,4.9,7.2,7.3c1.1,1.1,2.8,1.1,3.9,0c2.3-2.2,5.8-5.8,7.3-7.2C49.8,38.9,49.8,34.7,47.2,32.1z"/>
		<text transform="matrix(1 0 0 1 31.4952 42.2231)"><tspan x="0" y="0" class="st3 st4 st5">3</tspan><tspan x="6.8" y="0" class="st3 st4 st5">1</tspan></text>
		<circle class="st6" cx="24.3" cy="24" r="1.5"/>
		<circle class="st6" cx="32.6" cy="24" r="1.5"/>
		<circle class="st6" cx="41" cy="24" r="1.5"/>
		<circle class="st6" cx="49.3" cy="24" r="1.5"/>
		<g>
			<path class="st7" d="M24.3,24.3c-0.3,0-0.6-0.3-0.6-0.6v-5.6c0-0.3,0.3-0.6,0.6-0.6c0.3,0,0.6,0.3,0.6,0.6v5.6
				C24.9,24.1,24.6,24.3,24.3,24.3z"/>
			<path class="st7" d="M32.7,24.3c-0.3,0-0.6-0.3-0.6-0.6v-5.6c0-0.3,0.3-0.6,0.6-0.6c0.3,0,0.6,0.3,0.6,0.6v5.6
				C33.2,24.1,33,24.3,32.7,24.3z"/>
			<path class="st7" d="M41,24.3c-0.3,0-0.6-0.3-0.6-0.6v-5.6c0-0.3,0.3-0.6,0.6-0.6c0.3,0,0.6,0.3,0.6,0.6v5.6
				C41.6,24.1,41.3,24.3,41,24.3z"/>
			<path class="st7" d="M49.3,24.3c-0.3,0-0.6-0.3-0.6-0.6v-5.6c0-0.3,0.3-0.6,0.6-0.6c0.3,0,0.6,0.3,0.6,0.6v5.6
				C49.9,24.1,49.7,24.3,49.3,24.3z"/>
		</g>
	</g>
</g>
</svg>
