<?xml version="1.0" encoding="utf-8"?>
<!-- Generator: Adobe Illustrator 19.2.1, SVG Export Plug-In . SVG Version: 6.00 Build 0)  -->
<svg version="1.1" id="Layer_1" xmlns="http://www.w3.org/2000/svg" xmlns:xlink="http://www.w3.org/1999/xlink" x="0px" y="0px"
	 viewBox="0 0 64.3 65.5" style="enable-background:new 0 0 64.3 65.5;" xml:space="preserve">
<style type="text/css">
	.st0{fill:#55C5CA;}
	.st1{fill:#F2F2F2;}
</style>
<g>
	<circle class="st0" cx="32.2" cy="33.4" r="32.2"/>
	<path class="st1" d="M43.1,22.2c-4.6-2.7-9-0.9-10.6-0.1c-1.9-0.9-5.8-2.1-10,0.4c-5.8,3.4-4,12.7,0.4,23.2c3.7,8.7,6.7-2,7.1-4
		c0.2-1,0.2-1.9,0.9-3.8c0.6-1.9,3.3-1.9,3.9,0c0.6,1.8,0.6,2.6,0.8,3.5c0.4,2,3.5,12.7,7.1,4C47.6,33.8,48.9,25.6,43.1,22.2z"/>
</g>
</svg>
