<?xml version="1.0" encoding="utf-8"?>
<!-- Generator: Adobe Illustrator 19.2.1, SVG Export Plug-In . SVG Version: 6.00 Build 0)  -->
<svg version="1.1" id="Layer_1" xmlns="http://www.w3.org/2000/svg" xmlns:xlink="http://www.w3.org/1999/xlink" x="0px" y="0px"
	 viewBox="0 0 66.2 72.5" style="enable-background:new 0 0 66.2 72.5;" xml:space="preserve">
<style type="text/css">
	.st0{fill:#582143;}
	.st1{opacity:0.5;}
	.st2{fill-rule:evenodd;clip-rule:evenodd;fill:#FFFFFF;}
	.st3{fill:#FFFFFF;}
	.st4{fill:#55C5CA;}
	.st5{fill:#F1585D;}
</style>
<g>
	<g>
		<circle class="st0" cx="33.1" cy="39.4" r="33.1"/>
	</g>
	<g>
		<g class="st1">
			
				<rect x="32.4" y="51.1" transform="matrix(-1 8.382527e-11 -8.382527e-11 -1 66.1666 112.8851)" class="st2" width="1.4" height="10.6"/>
		</g>
		<path class="st3" d="M32.3,24.5v5.7l-3.2,2.9v21.3c0,0.5,0.4,1,1,1c1.5,0,4.4,0,5.9,0c0.6,0,1-0.5,1-1V33.1l-3.2-2.9v-5.7"/>
		<rect x="29.1" y="34" class="st4" width="7.8" height="14.2"/>
		<g>
			<g>
				<path class="st3" d="M29.1,38.3h3.1c0.2,0,0.4-0.2,0.4-0.4c0-0.2-0.2-0.4-0.4-0.4h-3.1V38.3z"/>
				<path class="st3" d="M32.6,46.6c0-0.2-0.2-0.4-0.4-0.4h-3.1V47h3.1C32.5,47,32.6,46.8,32.6,46.6z"/>
				<path class="st3" d="M29.1,36.2h1.6c0.2,0,0.4-0.2,0.4-0.4c0-0.2-0.2-0.4-0.4-0.4h-1.6V36.2z"/>
				<path class="st3" d="M32.6,42.2c0-0.2-0.2-0.4-0.4-0.4h-3.1v0.8h3.1C32.5,42.6,32.6,42.4,32.6,42.2z"/>
				<path class="st3" d="M31.1,44.5c0-0.2-0.2-0.4-0.4-0.4h-1.6v0.8h1.6C30.9,44.9,31.1,44.7,31.1,44.5z"/>
				<path class="st3" d="M30.7,39.8h-1.6v0.8h1.6c0.2,0,0.4-0.2,0.4-0.4S30.9,39.8,30.7,39.8z"/>
			</g>
			<g>
				<path class="st3" d="M29.1,51.1h3.1c0.2,0,0.4-0.2,0.4-0.4c0-0.2-0.2-0.4-0.4-0.4h-3.1V51.1z"/>
				<path class="st3" d="M29.1,49.1h1.6c0.2,0,0.4-0.2,0.4-0.4c0-0.2-0.2-0.4-0.4-0.4h-1.6V49.1z"/>
				<path class="st3" d="M30.7,52.6h-1.6v0.8h1.6c0.2,0,0.4-0.2,0.4-0.4C31.1,52.8,30.9,52.6,30.7,52.6z"/>
			</g>
		</g>
		<path class="st3" d="M36.3,62.8h-6.5c-0.4,0-0.7-0.3-0.7-0.7v-0.4c0-0.4,0.3-0.7,0.7-0.7h6.5c0.4,0,0.7,0.3,0.7,0.7V62
			C37.1,62.4,36.7,62.8,36.3,62.8z"/>
		<circle class="st3" cx="33" cy="24.5" r="0.7"/>
	</g>
	<path class="st5" d="M41,1.8c-2.3-2.3-6-2.3-8.4,0c-2.3-2.3-6-2.4-8.4-0.1c-2.3,2.3-2.4,6,0.1,8.6c1,1,4.3,4.4,6.4,6.5
		c1,1,2.5,1,3.5,0c2-2,5.2-5.1,6.5-6.4C43.3,7.8,43.3,4.1,41,1.8z"/>
</g>
</svg>
