<?xml version="1.0" encoding="utf-8"?>
<!-- Generator: Adobe Illustrator 19.2.1, SVG Export Plug-In . SVG Version: 6.00 Build 0)  -->
<svg version="1.1" id="Layer_1" xmlns="http://www.w3.org/2000/svg" xmlns:xlink="http://www.w3.org/1999/xlink" x="0px" y="0px"
	 viewBox="0 0 84.8 100.6" style="enable-background:new 0 0 84.8 100.6;" xml:space="preserve">
<style type="text/css">
	.st0{fill:#7B374B;}
	
		.st1{clip-path:url(#SVGID_2_);fill:none;stroke:#F5909D;stroke-width:7.1358;stroke-linecap:round;stroke-linejoin:round;stroke-miterlimit:10;}
	
		.st2{clip-path:url(#SVGID_2_);fill:none;stroke:#F7A8A8;stroke-width:7.1358;stroke-linecap:round;stroke-linejoin:round;stroke-miterlimit:10;}
	.st3{clip-path:url(#SVGID_2_);fill:none;stroke:#F7A8A8;stroke-width:8.0277;stroke-miterlimit:10;}
	.st4{clip-path:url(#SVGID_2_);}
	.st5{fill:#FBD55B;}
	.st6{fill:#03AAB7;}
	.st7{fill:#FFFFFF;}
	.st8{fill:#F15A48;}
	.st9{fill:#DD2331;}
	.st10{fill:#D2D3D4;}
	.st11{fill:#F7A8A8;}
	.st12{fill:none;stroke:#F7A8A8;stroke-width:7.1358;stroke-linecap:round;stroke-linejoin:round;stroke-miterlimit:10;}
</style>
<g>
	<g>
		<g>
			<circle class="st0" cx="42.4" cy="58.2" r="42.4"/>
		</g>
	</g>
</g>
<g>
	<defs>
		<path id="SVGID_1_" d="M77.6,34.6v-51.4H18.8V23C7.5,30.6,0,43.6,0,58.2c0,23.4,19,42.4,42.4,42.4c23.4,0,42.4-19,42.4-42.4
			C84.8,49.5,82.1,41.3,77.6,34.6z"/>
	</defs>
	<clipPath id="SVGID_2_">
		<use xlink:href="#SVGID_1_"  style="overflow:visible;"/>
	</clipPath>
	<polyline class="st1" points="23.2,48.2 39.4,48.2 39.4,60.9 	"/>
	<polyline class="st1" points="31.7,61 31.7,52.9 24,52.9 	"/>
	<path class="st2" d="M33.4,44.5"/>
	<line class="st3" x1="31.2" y1="117.7" x2="31.2" y2="73.6"/>
	<g class="st4">
		<line class="st5" x1="31.2" y1="117.7" x2="31.2" y2="83.4"/>
		<rect x="25.7" y="83.4" class="st6" width="11" height="34.2"/>
	</g>
	<path class="st2" d="M22.7,46v-7.3c0.1-8.2,13.5-8.7,13.2-0.7"/>
	<g class="st4">
		<g>
			<path class="st7" d="M65.3,2.5L65,61.3c0,1.3-1,2.3-2.3,2.3l-32.7-0.2c-1.3,0-2.3-1-2.3-2.3l0.3-58.8C27.9,1,29,0,30.2,0L63,0.2
				C64.2,0.2,65.3,1.2,65.3,2.5z"/>
			<path class="st8" d="M65.3,2.5L65,61.3c0,1.3-1,2.3-2.3,2.3l-32.7-0.2c-1.3,0-2.3-1-2.3-2.3l0.3-58.8C27.9,1,29,0,30.2,0L63,0.2
				C64.2,0.2,65.3,1.2,65.3,2.5z"/>
			<g>
				<polygon class="st9" points="48.4,63.5 48.9,63.5 65.1,40.1 65.1,39.5 				"/>
				<polygon class="st9" points="40.2,63.5 40.6,63.5 65.1,28 65.1,27.3 				"/>
				<polygon class="st9" points="31.9,63.4 32.3,63.5 65.2,15.9 65.2,15.2 				"/>
				<path class="st9" d="M27.6,57.5l0,0.7L65.3,3.8l0-0.4c0-0.1,0-0.1,0-0.2L27.6,57.5z"/>
				<polygon class="st9" points="56.7,63.6 57.2,63.6 65,52.3 65,51.6 				"/>
				<polygon class="st9" points="27.9,9.1 27.9,9.8 34.6,0 34.1,0 				"/>
				<polygon class="st9" points="27.8,21.2 27.8,21.9 36.2,9.7 35.8,9.7 				"/>
				<polygon class="st9" points="27.8,33.3 27.8,34 51.2,0.1 50.7,0.1 				"/>
				<polygon class="st9" points="27.7,45.4 27.7,46.1 59.5,0.2 59,0.2 				"/>
			</g>
			<g>
				<path class="st7" d="M40.1,8.4l1.1,0c-0.1-0.4-0.3-0.6-0.6-0.6C40.4,7.8,40.2,8.1,40.1,8.4z"/>
				<path class="st7" d="M34.4,17.6c0,1,1.1,1.6,1.9,1.1l3.2-1.9l3.4,2c0.8,0.5,1.9-0.1,1.9-1.1L44.8,0L34.5-0.1L34.4,17.6z
					 M42.3,8.4l0.8,0l0,0.8l-0.7,0c-0.1,0.9-0.4,1.5-0.9,2l-0.9-0.6c0.3-0.3,0.6-0.8,0.7-1.3l-1.3,0c-0.2,0.9-0.5,1.8-1.7,1.8
					c-0.8,0-1.5-0.7-1.7-1.8l-0.8,0l0-0.8l0.8,0c0.1-0.7,0.3-1.2,0.7-1.7l0.9,0.7c-0.3,0.3-0.5,0.7-0.5,1l1.2,0
					c0.2-0.9,0.6-1.8,1.7-1.8C41.4,6.6,42.1,7.2,42.3,8.4z"/>
				<path class="st7" d="M38.2,9.8c0.2,0,0.4-0.2,0.5-0.6l-1,0C37.7,9.6,37.9,9.8,38.2,9.8z"/>
			</g>
		</g>
		<path class="st7" d="M31.8,63.9h29.4c2.3,0,4.2-1.9,4.2-4.2V23.2L46.5,33.3l-18.9-10v36.5C27.6,62,29.5,63.9,31.8,63.9z"/>
		<g>
			<path class="st10" d="M46.5,50H55v-5.4c0-1.3-1-2.3-2.3-2.3h-6.2V50z"/>
			<path class="st10" d="M46.5,50v-7.7h-6.2c-1.3,0-2.3,1-2.3,2.3V50H46.5z"/>
			<path class="st10" d="M46.5,49.9H38v5.4c0,1.3,1,2.3,2.3,2.3h6.2V49.9z"/>
			<path class="st10" d="M46.5,49.9v7.7h6.2c1.3,0,2.3-1,2.3-2.3v-5.4H46.5z"/>
			<path class="st10" d="M45.6,43.1c-0.1-0.1-3.3-1.4-4.6-2.9c-0.5-0.6-0.7-1.3-0.7-1.9c0.1-0.7,0.5-1.3,0.9-1.5
				c0.6-0.5,2.1-0.9,3.5,0.4c1.8,1.6,1.7,5,1.7,5.1l-0.7,0c0,0,0,0,0,0L45.6,43.1z M42.7,37.2c-0.5,0-0.9,0.3-1,0.3
				c-0.2,0.1-0.5,0.5-0.6,0.9c-0.1,0.4,0.1,0.8,0.5,1.3c0.9,1.1,3.3,2.2,4,2.5c0-0.5-0.1-3.2-1.5-4.4C43.7,37.3,43.2,37.2,42.7,37.2
				z"/>
			<path class="st10" d="M47.4,43.1l-0.3-0.8c0,0,0,0,0,0l-0.7,0c0-0.1,0-3.5,1.7-5.1c1.4-1.3,2.9-0.9,3.5-0.4
				c0.4,0.3,0.8,0.8,0.9,1.5c0.1,0.7-0.1,1.3-0.7,1.9C50.7,41.7,47.5,43.1,47.4,43.1z M50.2,37.2c-0.4,0-0.9,0.1-1.5,0.6
				c-1.4,1.2-1.5,4-1.5,4.4c0.7-0.3,3.1-1.4,4-2.5c0.4-0.4,0.5-0.9,0.5-1.3c-0.1-0.5-0.4-0.8-0.6-0.9C51.2,37.4,50.8,37.2,50.2,37.2
				z"/>
		</g>
	</g>
	<g class="st4">
		<path class="st11" d="M27.6,49.3v-6h-6.5c-3.3,0-5.9,2.7-5.9,5.9v14.3c0,7.4,6,13.4,13.4,13.4h9.2c4.4,0,8-3.6,8-8v-8
			c0-1.6-1.3-2.8-2.8-2.8h-6.4C31.5,58,27.6,54.1,27.6,49.3z"/>
		<g>
			<line class="st12" x1="40.7" y1="66.1" x2="40.7" y2="54.5"/>
			<path class="st12" d="M40.7,54.5c0,0-6.2-2.5-5.3-11.7"/>
			<circle class="st7" cx="36" cy="42.9" r="1.9"/>
		</g>
	</g>
</g>
</svg>
