<?xml version="1.0" encoding="utf-8"?>
<!-- Generator: Adobe Illustrator 19.2.1, SVG Export Plug-In . SVG Version: 6.00 Build 0)  -->
<svg version="1.1" id="Layer_1" xmlns="http://www.w3.org/2000/svg" xmlns:xlink="http://www.w3.org/1999/xlink" x="0px" y="0px"
	 viewBox="0 0 63.7 63.8" style="enable-background:new 0 0 63.7 63.8;" xml:space="preserve">
<style type="text/css">
	.st0{fill:#55C5CA;}
	.st1{fill:none;stroke:#F2F2F2;stroke-width:3.7118;stroke-miterlimit:10;}
	.st2{fill:#2F3D58;}
	.st3{fill:none;stroke:#41838E;stroke-linecap:round;stroke-miterlimit:10;}
	.st4{fill:#43898F;}
	.st5{fill:#D2D3D4;}
	.st6{fill:#FFFFFF;}
	.st7{fill:none;stroke:#43898F;stroke-width:1.0066;stroke-linecap:round;stroke-miterlimit:10;}
	.st8{fill:#C8431C;}
	.st9{fill:#F15C27;}
	.st10{fill:none;stroke:#F3F3F3;stroke-linecap:round;stroke-miterlimit:10;}
	.st11{fill:#B4B4B4;stroke:#B4B4B4;stroke-miterlimit:10;}
	.st12{fill:none;stroke:#B4B4B4;stroke-width:1.0066;stroke-linecap:round;stroke-miterlimit:10;}
	.st13{fill:none;stroke:#E6E6E5;stroke-width:1.0066;stroke-linecap:round;stroke-miterlimit:10;}
</style>
<g>
	<g>
		<circle class="st0" cx="32" cy="31.8" r="31.7"/>
	</g>
	<g>
		<path class="st1" d="M39.4,30.2"/>
		<path class="st1" d="M39.4,18.6"/>
		<path class="st1" d="M24.5,30.2V18.6c0-3.8,3.1-6.9,6.9-6.9h1"/>
	</g>
	<circle class="st2" cx="32" cy="35.7" r="12.2"/>
	<line class="st3" x1="20.8" y1="53.5" x2="42.8" y2="53.5"/>
	<circle class="st4" cx="31.9" cy="35.7" r="8.4"/>
	<circle class="st5" cx="31.9" cy="35.7" r="6.8"/>
	<circle class="st6" cx="31.9" cy="35.7" r="5"/>
	<g>
		<line class="st7" x1="31.8" y1="25.7" x2="31.8" y2="27.2"/>
		<line class="st7" x1="38.9" y1="28.6" x2="37.8" y2="29.7"/>
		<line class="st7" x1="41.9" y1="35.8" x2="40.3" y2="35.8"/>
		<line class="st7" x1="38.9" y1="42.9" x2="37.8" y2="41.8"/>
		<line class="st7" x1="31.8" y1="45.8" x2="31.8" y2="44.3"/>
		<line class="st7" x1="24.7" y1="42.9" x2="25.8" y2="41.8"/>
		<line class="st7" x1="21.7" y1="35.8" x2="23.3" y2="35.8"/>
		<line class="st7" x1="24.7" y1="28.6" x2="25.8" y2="29.7"/>
	</g>
	<g>
		<line class="st7" x1="35.9" y1="26.5" x2="35.2" y2="28"/>
		<line class="st7" x1="41.2" y1="32.1" x2="39.7" y2="32.7"/>
		<line class="st7" x1="41" y1="39.8" x2="39.6" y2="39.2"/>
		<line class="st7" x1="35.5" y1="45.1" x2="34.9" y2="43.7"/>
		<line class="st7" x1="27.8" y1="45" x2="28.4" y2="43.5"/>
		<line class="st7" x1="22.4" y1="39.4" x2="23.9" y2="38.8"/>
		<line class="st7" x1="22.6" y1="31.7" x2="24" y2="32.3"/>
		<line class="st7" x1="28.2" y1="26.4" x2="28.7" y2="27.8"/>
	</g>
</g>
<g>
	<circle class="st8" cx="31.9" cy="31.9" r="31.9"/>
</g>
<g>
	<path class="st1" d="M24.3,30.3V18.7c0-3.9,3.1-7,7-7h1c3.9,0,7,3.1,7,7v11.6"/>
</g>
<circle class="st9" cx="31.8" cy="35.8" r="12.2"/>
<line class="st10" x1="20.6" y1="53.8" x2="42.7" y2="53.8"/>
<circle class="st11" cx="31.8" cy="35.8" r="8.5"/>
<circle class="st5" cx="31.8" cy="35.8" r="6.9"/>
<circle class="st6" cx="31.8" cy="35.8" r="5.1"/>
<g>
	<line class="st12" x1="31.7" y1="25.7" x2="31.7" y2="27.3"/>
	<line class="st12" x1="38.8" y1="28.7" x2="37.7" y2="29.8"/>
	<line class="st12" x1="41.8" y1="35.9" x2="40.2" y2="35.9"/>
	<line class="st12" x1="38.8" y1="43.1" x2="37.7" y2="41.9"/>
	<line class="st12" x1="31.7" y1="46" x2="31.7" y2="44.5"/>
	<line class="st12" x1="24.5" y1="43.1" x2="25.6" y2="41.9"/>
	<line class="st12" x1="21.5" y1="35.9" x2="23.1" y2="35.9"/>
	<line class="st12" x1="24.5" y1="28.7" x2="25.6" y2="29.8"/>
</g>
<g>
	<line class="st13" x1="35.8" y1="26.6" x2="35.1" y2="28"/>
	<line class="st13" x1="41.1" y1="32.2" x2="39.7" y2="32.8"/>
	<line class="st13" x1="40.9" y1="40" x2="39.5" y2="39.3"/>
	<line class="st13" x1="35.3" y1="45.3" x2="34.8" y2="43.9"/>
	<line class="st13" x1="27.6" y1="45.2" x2="28.2" y2="43.7"/>
	<line class="st13" x1="22.2" y1="39.6" x2="23.7" y2="39"/>
	<line class="st13" x1="22.4" y1="31.8" x2="23.8" y2="32.4"/>
	<line class="st13" x1="28" y1="26.4" x2="28.6" y2="27.9"/>
</g>
</svg>
