<?xml version="1.0" encoding="utf-8"?>
<!-- Generator: Adobe Illustrator 19.2.1, SVG Export Plug-In . SVG Version: 6.00 Build 0)  -->
<svg version="1.1" id="Layer_1" xmlns="http://www.w3.org/2000/svg" xmlns:xlink="http://www.w3.org/1999/xlink" x="0px" y="0px"
	 viewBox="0 0 108.4 24.5" style="enable-background:new 0 0 108.4 24.5;" xml:space="preserve">
<style type="text/css">
	.st0{fill:#FFFFFF;}
</style>
<g>
	<g>
		<g>
			<g>
				<path class="st0" d="M16.1,24.5V10.6c0-1.6-0.6-2.9-1.7-4.1c-1.1-1.1-2.5-1.7-4-1.7c-1.6,0-2.9,0.6-4,1.7
					c-1.1,1.1-1.7,2.5-1.7,4.1v13.8H0V10.6c0-2.8,1-5.2,3.1-7.3c2.1-2.1,4.5-3.1,7.2-3.1c2.7,0,5.1,1,7.2,3.1
					c2.1,2.1,3.2,4.5,3.2,7.3v13.8H16.1z"/>
			</g>
		</g>
		<g>
			<g>
				<path class="st0" d="M48.6,12.4c0,3.3-1.2,6.2-3.6,8.6c-2.4,2.4-5.2,3.5-8.6,3.5c-3.3,0-6.2-1.2-8.6-3.5
					c-2.4-2.4-3.5-5.2-3.5-8.6c0-3.3,1.2-6.2,3.5-8.6c2.4-2.4,5.2-3.6,8.6-3.6c3.3,0,6.2,1.2,8.6,3.6C47.4,6.2,48.6,9,48.6,12.4z
					 M44,12.4c0-2.1-0.7-3.8-2.2-5.3c-1.5-1.5-3.3-2.3-5.3-2.3c-2.1,0-3.8,0.8-5.3,2.3c-1.5,1.5-2.2,3.3-2.2,5.3
					c0,2.1,0.7,3.9,2.2,5.4c1.5,1.5,3.3,2.2,5.3,2.2c2.1,0,3.9-0.7,5.3-2.2C43.3,16.2,44,14.4,44,12.4z"/>
			</g>
		</g>
		<polygon class="st0" points="64.5,24.5 58.3,24.5 49.6,0.2 54.5,0.2 61.4,19.2 68.3,0.2 73.3,0.2 		"/>
		<g>
			<path class="st0" d="M94.3,21.3c-2.1,2.1-4.5,3.1-7.2,3.1c-2.7,0-5.2-1-7.2-3.1c-2.1-2.1-3.1-4.5-3.1-7.3V0.2h4.6v13.9
				c0,1.6,0.6,2.9,1.7,4.1c1.1,1.1,2.5,1.7,4,1.7c1.6,0,2.9-0.6,4-1.7c1.1-1.1,1.7-2.5,1.7-4.1V0.2h4.6v13.9
				C97.5,16.8,96.4,19.3,94.3,21.3z"/>
		</g>
	</g>
</g>
<g>
	<g>
		<path class="st0" d="M106.2,0c0.4,0,0.7,0.1,1.1,0.3s0.6,0.5,0.8,0.8s0.3,0.7,0.3,1.1c0,0.4-0.1,0.8-0.3,1.1
			c-0.2,0.4-0.5,0.6-0.8,0.8c-0.4,0.2-0.7,0.3-1.1,0.3c-0.4,0-0.8-0.1-1.1-0.3c-0.4-0.2-0.6-0.5-0.8-0.8s-0.3-0.7-0.3-1.1
			c0-0.4,0.1-0.8,0.3-1.1c0.2-0.4,0.5-0.6,0.8-0.8S105.8,0,106.2,0z M106.2,0.4c-0.3,0-0.6,0.1-0.9,0.2c-0.3,0.2-0.5,0.4-0.7,0.7
			s-0.3,0.6-0.3,0.9c0,0.3,0.1,0.6,0.2,0.9c0.2,0.3,0.4,0.5,0.7,0.7c0.3,0.2,0.6,0.2,0.9,0.2c0.3,0,0.6-0.1,0.9-0.2
			c0.3-0.2,0.5-0.4,0.7-0.7c0.2-0.3,0.2-0.6,0.2-0.9c0-0.3-0.1-0.6-0.3-0.9c-0.2-0.3-0.4-0.5-0.7-0.7C106.8,0.5,106.5,0.4,106.2,0.4
			z M105.2,3.5V1.1h0.8c0.3,0,0.5,0,0.6,0.1c0.1,0,0.2,0.1,0.3,0.2c0.1,0.1,0.1,0.2,0.1,0.4c0,0.2-0.1,0.3-0.2,0.5
			c-0.1,0.1-0.3,0.2-0.5,0.2c0.1,0,0.2,0.1,0.2,0.1c0.1,0.1,0.2,0.3,0.4,0.5l0.3,0.5h-0.5l-0.2-0.4c-0.2-0.3-0.3-0.5-0.4-0.6
			c-0.1-0.1-0.2-0.1-0.3-0.1h-0.2v1H105.2z M105.6,2.1h0.5c0.2,0,0.4,0,0.5-0.1c0.1-0.1,0.1-0.2,0.1-0.3c0-0.1,0-0.1-0.1-0.2
			c0-0.1-0.1-0.1-0.2-0.1c-0.1,0-0.2,0-0.4,0h-0.4V2.1z"/>
	</g>
</g>
</svg>
