<?xml version="1.0" encoding="utf-8"?>
<!-- Generator: Adobe Illustrator 19.2.1, SVG Export Plug-In . SVG Version: 6.00 Build 0)  -->
<svg version="1.1" id="Layer_1" xmlns="http://www.w3.org/2000/svg" xmlns:xlink="http://www.w3.org/1999/xlink" x="0px" y="0px"
	 viewBox="0 0 144.6 36" style="enable-background:new 0 0 144.6 36;" xml:space="preserve">
<style type="text/css">
	.st0{fill:#FFFFFF;}
</style>
<g>
	<path class="st0" d="M23.9,36V15.5c0-2.3-0.8-4.3-2.5-6c-1.7-1.7-3.7-2.5-6-2.5c-2.3,0-4.3,0.9-6,2.5c-1.7,1.7-2.5,3.7-2.5,6V36H0
		V15.5c0-4.1,1.5-7.7,4.6-10.8C7.7,1.6,11.3,0,15.4,0c4.1,0,7.6,1.6,10.7,4.7c3.1,3.1,4.7,6.7,4.7,10.8V36H23.9z"/>
	<path class="st0" d="M72.1,18c0,4.9-1.8,9.2-5.3,12.7C63.3,34.2,59,36,54.1,36c-5,0-9.2-1.8-12.7-5.2c-3.5-3.5-5.3-7.8-5.3-12.7
		c0-4.9,1.8-9.2,5.3-12.7C44.9,1.8,49.2,0,54.1,0c4.9,0,9.2,1.8,12.7,5.3C70.3,8.9,72.1,13.1,72.1,18z M65.3,18
		c0-3.1-1.1-5.7-3.3-7.9c-2.2-2.2-4.9-3.3-7.9-3.3c-3.1,0-5.7,1.1-7.9,3.3C44,12.3,42.9,15,42.9,18c0,3.1,1.1,5.8,3.3,8
		c2.2,2.2,4.8,3.3,7.9,3.3c3.1,0,5.7-1.1,7.9-3.3C64.2,23.8,65.3,21.1,65.3,18z"/>
	<path class="st0" d="M95.7,36h-9.2l-13-36h7.3l10.2,28.2L101.4,0h7.4L95.7,36z"/>
	<path class="st0" d="M139.9,31.4c-3.1,3.1-6.7,4.6-10.7,4.6c-4.1,0-7.7-1.5-10.7-4.6c-3.1-3.1-4.6-6.7-4.6-10.8V0h6.9v20.6
		c0,2.3,0.8,4.3,2.5,6c1.7,1.7,3.7,2.5,6,2.5c2.3,0,4.3-0.8,6-2.5c1.7-1.7,2.5-3.7,2.5-6V0h6.9v20.6C144.6,24.7,143,28.3,139.9,31.4
		z"/>
</g>
</svg>
