<?xml version="1.0" encoding="utf-8"?>
<!-- Generator: Adobe Illustrator 19.2.1, SVG Export Plug-In . SVG Version: 6.00 Build 0)  -->
<svg version="1.1" id="Layer_1" xmlns="http://www.w3.org/2000/svg" xmlns:xlink="http://www.w3.org/1999/xlink" x="0px" y="0px"
	 viewBox="0 0 111.2 110.4" style="enable-background:new 0 0 111.2 110.4;" xml:space="preserve">
<style type="text/css">
	.st0{fill:#A5CE3B;}
	.st1{clip-path:url(#SVGID_2_);}
	.st2{fill:#3C1F3C;}
	.st3{fill:none;stroke:#F48C9B;stroke-width:3.2718;stroke-linecap:round;stroke-linejoin:round;stroke-miterlimit:10;}
	.st4{fill:none;stroke:#F7A8A8;stroke-width:5.8756;stroke-linecap:round;stroke-linejoin:round;stroke-miterlimit:10;}
	.st5{fill:#F7A8A8;}
	.st6{fill:#FFFFFF;}
</style>
<g>
	<g>
		<circle class="st0" cx="56.3" cy="54.9" r="54.9"/>
	</g>
	<g>
		<defs>
			<circle id="SVGID_1_" cx="54.9" cy="55.5" r="54.9"/>
		</defs>
		<clipPath id="SVGID_2_">
			<use xlink:href="#SVGID_1_"  style="overflow:visible;"/>
		</clipPath>
		<g class="st1">
			<circle class="st2" cx="39.5" cy="73" r="51.2"/>
			<rect x="-33" y="-28.2" class="st2" width="78" height="85.9"/>
		</g>
		<g class="st1">
			<g>
				<line class="st3" x1="45.6" y1="71.7" x2="60.1" y2="82.8"/>
				<line class="st3" x1="39" y1="72" x2="47.4" y2="85.5"/>
				<g>
					<line class="st4" x1="-8.4" y1="45.6" x2="28.7" y2="61.7"/>
					<g>
						<line class="st3" x1="48" y1="66.5" x2="66.6" y2="73.8"/>
						<line class="st3" x1="49.4" y1="61" x2="66.9" y2="64.3"/>
						<g>
							<path class="st3" d="M30.5,60.9l2.2-4.5c0,0,1.4-4.4,7.2-4.4c0,0,3.7,0.4,6.5-3.2"/>
							<path class="st5" d="M31.4,51.9L24,66.6c-0.7,1.3-0.1,2.9,1.2,3.6l15.6,7.9c2.4,1.2,5.3,0.3,6.5-2.1l6.4-12.6
								c0.8-1.6,0.2-3.5-1.4-4.3l-16.6-8.5C34.1,49.8,32.2,50.4,31.4,51.9z"/>
						</g>
					</g>
				</g>
			</g>
			
				<ellipse transform="matrix(0.5464 -0.8376 0.8376 0.5464 -42.0209 88.2706)" class="st6" cx="60.5" cy="82.9" rx="1.5" ry="1.3"/>
			<ellipse transform="matrix(0.8211 -0.5708 0.5708 0.8211 -40.362 42.486)" class="st6" cx="47.6" cy="85.6" rx="1.5" ry="1.3"/>
			<ellipse transform="matrix(0.5701 -0.8216 0.8216 0.5701 -31.9623 86.9837)" class="st6" cx="67.1" cy="74" rx="1.5" ry="1.3"/>
			<ellipse transform="matrix(0.1712 -0.9852 0.9852 0.1712 -7.8141 119.2627)" class="st6" cx="67" cy="64.3" rx="1.5" ry="1.3"/>
			<ellipse transform="matrix(0.6656 -0.7463 0.7463 0.6656 -20.231 50.991)" class="st6" cx="46.8" cy="48.1" rx="1.3" ry="1.5"/>
		</g>
	</g>
</g>
</svg>
