<?xml version="1.0" encoding="utf-8"?>
<!-- Generator: Adobe Illustrator 19.2.1, SVG Export Plug-In . SVG Version: 6.00 Build 0)  -->
<svg version="1.1" id="Layer_1" xmlns="http://www.w3.org/2000/svg" xmlns:xlink="http://www.w3.org/1999/xlink" x="0px" y="0px"
	 viewBox="0 0 73.4 73.4" style="enable-background:new 0 0 73.4 73.4;" xml:space="preserve">
<style type="text/css">
	.st0{fill:#25D494;}
	.st1{fill:#085056;}
	.st2{fill:#111D29;}
	.st3{fill:#FFFFFF;}
	.st4{opacity:0.5;}
</style>
<g>
	<g>
		<g>
			<g>
				<circle class="st0" cx="36.7" cy="36.7" r="36.7"/>
			</g>
		</g>
	</g>
	<g>
		<g>
			<g>
				<path class="st1" d="M18.4,23H57c1.4,0,2.5,1.1,2.5,2.5v22.3c0,1.4-1.1,2.5-2.5,2.5H18.4c-1.4,0-2.5-1.1-2.5-2.5V25.5
					C15.8,24.1,17,23,18.4,23z"/>
			</g>
			<g>
				<path class="st2" d="M15.8,36.2h43.7v12.3c0,1-0.8,1.8-1.8,1.8h-40c-1,0-1.8-0.8-1.8-1.8V36.2z"/>
			</g>
		</g>
		<circle class="st0" cx="31.6" cy="36.4" r="7.9"/>
		<circle class="st3" cx="43" cy="36.4" r="7.9"/>
		<g class="st4">
			<path class="st0" d="M35.1,36.7c0,0.5,0.1,1,0.2,1.4h4.1c0.1-0.5,0.2-0.9,0.2-1.4H35.1z"/>
			<path class="st0" d="M38.2,31.9c-0.3-0.4-0.5-0.7-0.9-1.1c-0.3,0.3-0.6,0.7-0.9,1.1H38.2z"/>
			<path class="st0" d="M38.5,40.2c0.3-0.5,0.5-0.9,0.6-1.4h-3.7c0.2,0.5,0.4,1,0.6,1.4H38.5z"/>
			<path class="st0" d="M36.5,40.9c0.2,0.4,0.5,0.7,0.8,1c0.3-0.3,0.6-0.6,0.8-1H36.5z"/>
			<path class="st0" d="M35.3,34.6c-0.1,0.5-0.2,0.9-0.2,1.4h4.5c0-0.5-0.1-1-0.2-1.4H35.3z"/>
			<path class="st0" d="M36,32.5c-0.3,0.5-0.5,0.9-0.6,1.4h3.8c-0.2-0.5-0.4-1-0.6-1.4H36z"/>
		</g>
		<g>
			<path class="st3" d="M31.5,39.5v0.8h-0.3v-0.8c-0.9,0-1.6-0.4-2.1-1l0.2-0.2c0.4,0.4,1,0.9,1.8,0.9v-3c-0.9-0.3-1.9-0.5-1.9-1.6
				c0-1,0.9-1.6,1.9-1.6v-0.8h0.3v0.8c0.8,0,1.4,0.4,1.8,0.9l-0.2,0.2c-0.4-0.5-0.9-0.8-1.6-0.8v2.6c1,0.3,1.9,0.6,1.9,1.8
				C33.5,38.5,33,39.5,31.5,39.5z M31.2,36v-2.6c-0.9,0-1.5,0.6-1.5,1.3C29.7,35.5,30.4,35.7,31.2,36z M33.1,37.9
				c0-0.9-0.8-1.2-1.6-1.5v2.9C32.8,39.2,33.1,38.4,33.1,37.9z"/>
		</g>
		<g>
			<g>
				<path class="st0" d="M43.6,36.8h2.8v-1.8c0-0.4-0.3-0.8-0.8-0.8h-2.1V36.8z"/>
				<path class="st0" d="M43.2,36.8v-2.5h-2.1c-0.4,0-0.8,0.3-0.8,0.8v1.8H43.2z"/>
				<path class="st0" d="M43.2,37.2h-2.8V39c0,0.4,0.3,0.8,0.8,0.8h2.1V37.2z"/>
				<path class="st0" d="M43.6,37.2v2.5h2.1c0.4,0,0.8-0.3,0.8-0.8v-1.8H43.6z"/>
			</g>
			<path class="st0" d="M42.9,34.6c0,0-1.1-0.5-1.5-0.9c-0.2-0.2-0.2-0.4-0.2-0.6c0-0.2,0.2-0.4,0.3-0.5c0.2-0.2,0.7-0.3,1.2,0.1
				c0.6,0.5,0.6,1.6,0.6,1.7l-0.2,0c0,0,0,0,0,0L42.9,34.6z M42,32.6c-0.2,0-0.3,0.1-0.3,0.1c-0.1,0-0.2,0.2-0.2,0.3
				c0,0.1,0,0.3,0.2,0.4c0.3,0.4,1.1,0.7,1.3,0.8c0-0.2,0-1.1-0.5-1.5C42.3,32.7,42.1,32.6,42,32.6z"/>
			<path class="st0" d="M43.9,34.6l-0.1-0.3c0,0,0,0,0,0l-0.2,0c0,0,0-1.2,0.6-1.7c0.5-0.4,1-0.3,1.2-0.1c0.1,0.1,0.3,0.3,0.3,0.5
				c0,0.2,0,0.4-0.2,0.6C45,34.1,43.9,34.6,43.9,34.6z M44.8,32.6c-0.1,0-0.3,0-0.5,0.2c-0.5,0.4-0.5,1.3-0.5,1.5
				c0.2-0.1,1-0.5,1.3-0.8c0.1-0.1,0.2-0.3,0.2-0.4c0-0.2-0.1-0.3-0.2-0.3C45.1,32.7,45,32.6,44.8,32.6z"/>
		</g>
	</g>
</g>
</svg>
